<svg width="16" height="16" viewBox="0 0 16 16" fill="none" xmlns="http://www.w3.org/2000/svg">
<g clip-path="url(#clip0_7795_16318)">
<path d="M15.6263 8.14968C15.6263 7.49417 15.5731 7.01582 15.458 6.51976H7.97266V9.47842H12.3664C12.2778 10.2137 11.7995 11.321 10.7364 12.065L10.7215 12.1641L13.0883 13.9976L13.2522 14.0139C14.7581 12.6231 15.6263 10.5769 15.6263 8.14968Z" fill="#4285F4"/>
<path d="M7.97272 15.945C10.1253 15.945 11.9324 15.2363 13.2523 14.0139L10.7365 12.065C10.0633 12.5345 9.15972 12.8623 7.97272 12.8623C5.86445 12.8623 4.07507 11.4716 3.43721 9.54932L3.34372 9.55726L0.882769 11.4618L0.850586 11.5513C2.16161 14.1556 4.85456 15.945 7.97272 15.945Z" fill="#34A853"/>
<path d="M3.43701 9.54932C3.2687 9.05326 3.1713 8.52171 3.1713 7.97252C3.1713 7.42327 3.2687 6.89179 3.42815 6.39573L3.42369 6.29008L0.931908 4.35493L0.850382 4.39371C0.310046 5.47445 0 6.68806 0 7.97252C0 9.25698 0.310046 10.4705 0.850382 11.5513L3.43701 9.54932Z" fill="#FBBC05"/>
<path d="M7.97272 3.08269C9.46976 3.08269 10.4796 3.72934 11.0554 4.26974L13.3054 2.07285C11.9236 0.788397 10.1253 0 7.97272 0C4.85456 0 2.16161 1.78937 0.850586 4.39371L3.42836 6.39573C4.07507 4.47347 5.86445 3.08269 7.97272 3.08269Z" fill="#EB4335"/>
</g>
<defs>
<clipPath id="clip0_7795_16318">
<rect width="15.6336" height="16" fill="white"/>
</clipPath>
</defs>
</svg>
