<svg width="20" height="20" viewBox="0 0 20 20" fill="none" xmlns="http://www.w3.org/2000/svg">
<path opacity="0.3" d="M3.636 3.636L5.05 5.05M14.95 14.95L16.364 16.364M1 10H3M17 10H19M3.635 16.363L5.05 14.95M14.949 5.05L16.363 3.635M10 19V17M10 3V1M10 14C12.219 14 14 12.237 14 10.018C14.002 9.49131 13.9 8.96941 13.6999 8.4822C13.4998 7.995 13.2055 7.55208 12.8339 7.17881C12.4623 6.80555 12.0207 6.50929 11.5344 6.307C11.0481 6.10472 10.5267 6.00039 10 6C7.781 6 6 7.781 6 10C6 12.219 7.781 14 10 14Z" stroke="white" stroke-linecap="round" stroke-linejoin="round"/>
<path d="M10 1V3M16.5 3.5L15 5" stroke="white" stroke-linecap="round" stroke-linejoin="round"/>
<path d="M10 14C12.2091 14 14 12.2091 14 10C14 7.79086 12.2091 6 10 6C7.79086 6 6 7.79086 6 10C6 12.2091 7.79086 14 10 14Z" stroke="white" stroke-linecap="round" stroke-linejoin="round"/>
<path d="M3.5 3.5L5 5M10 19V17M16.5 16.5L15 15M3.5 16.5L5 15M1 10H3M17 10H19" stroke="white" stroke-linecap="round" stroke-linejoin="round"/>
</svg>
