<svg width="27" height="30" viewBox="0 0 27 30" fill="none" xmlns="http://www.w3.org/2000/svg">
<path d="M13.9979 14.0017C15.3825 14.0017 16.7361 13.5911 17.8874 12.8218C19.0387 12.0526 19.936 10.9592 20.4658 9.67995C20.9957 8.40071 21.1344 6.99308 20.8642 5.63505C20.5941 4.27702 19.9273 3.02959 18.9483 2.0505C17.9692 1.07142 16.7217 0.404651 15.3637 0.134522C14.0057 -0.135607 12.598 0.00303335 11.3188 0.53291C10.0396 1.06279 8.94619 1.9601 8.17692 3.11139C7.40766 4.26267 6.99707 5.61621 6.99707 7.00084C6.99707 8.85758 7.73466 10.6383 9.04757 11.9512C10.3605 13.2641 12.1412 14.0017 13.9979 14.0017ZM13.9979 2.00024C14.9869 2.00024 15.9538 2.29352 16.7761 2.843C17.5984 3.39247 18.2394 4.17346 18.6179 5.0872C18.9963 6.00094 19.0954 7.00639 18.9024 7.97641C18.7095 8.94643 18.2332 9.83746 17.5339 10.5368C16.8345 11.2362 15.9435 11.7124 14.9735 11.9054C14.0035 12.0983 12.998 11.9993 12.0843 11.6208C11.1705 11.2423 10.3895 10.6014 9.84006 9.77903C9.29059 8.95669 8.99731 7.98987 8.99731 7.00084C8.99731 5.6746 9.52416 4.40268 10.462 3.46489C11.3997 2.52709 12.6717 2.00024 13.9979 2.00024Z" fill="#1B2063"/>
<path d="M26.4701 21.3689C24.8662 19.6737 22.9335 18.3235 20.79 17.4007C18.6465 16.4778 16.3373 16.0019 14.0036 16.0019C11.6699 16.0019 9.36077 16.4778 7.21728 17.4007C5.07379 18.3235 3.14102 19.6737 1.53714 21.3689C1.18941 21.7403 0.996283 22.2303 0.997073 22.7391V27.9997C0.997073 28.5302 1.20781 29.039 1.58293 29.4141C1.95805 29.7892 2.46682 30 2.99731 30H25C25.5305 30 26.0392 29.7892 26.4143 29.4141C26.7895 29.039 27.0002 28.5302 27.0002 27.9997V22.7391C27.0037 22.2317 26.8142 21.7419 26.4701 21.3689ZM25 27.9997H2.99731V22.7291C4.41471 21.2366 6.12098 20.0481 8.01227 19.236C9.90357 18.4238 11.9403 18.005 13.9986 18.005C16.0569 18.005 18.0937 18.4238 19.985 19.236C21.8763 20.0481 23.5826 21.2366 25 22.7291V27.9997Z" fill="#1B2063"/>
</svg>
