<svg width="24" height="25" viewBox="0 0 24 25" fill="none" xmlns="http://www.w3.org/2000/svg">
<path d="M8.226 20.357H1.353L3.143 16.132H7.955L13.308 3.71002H7.564L3.338 13.53H5.925C6.105 13.83 6.436 14.04 6.812 14.04C7.08696 14.0395 7.35052 13.9301 7.54504 13.7358C7.73956 13.5414 7.84921 13.278 7.85 13.003C7.85 12.431 7.383 11.98 6.812 11.98C6.391 11.98 6.045 12.22 5.88 12.582H4.647L8.15 4.64202H11.91L7.383 15.184L2.617 15.214L0 21.29H8.842L10 18.763H13.835L15.113 21.289H24L15.985 3.71102L8.226 20.357ZM10.496 17.771L11.88 14.748L13.383 17.771H10.496ZM15.714 20.462L14.842 18.703H17.579C17.759 19.033 18.105 19.259 18.496 19.259C18.771 19.2585 19.0345 19.1491 19.229 18.9548C19.4236 18.7604 19.5332 18.497 19.534 18.222C19.5335 17.9469 19.4239 17.6832 19.2294 17.4886C19.0348 17.2941 18.7711 17.1846 18.496 17.184C18.076 17.184 17.714 17.44 17.549 17.801H14.42L12.33 13.741L13.864 10.372L15.593 13.891H16.405C16.57 14.237 16.931 14.492 17.337 14.492C17.612 14.4915 17.8755 14.3821 18.07 14.1878C18.2646 13.9934 18.3742 13.73 18.375 13.455C18.3745 13.1799 18.2649 12.9162 18.0704 12.7216C17.8758 12.5271 17.6121 12.4176 17.337 12.417C17.1285 12.417 16.9249 12.4803 16.7531 12.5985C16.5813 12.7167 16.4495 12.8843 16.375 13.079H16.075L14.285 9.43902L15.984 5.71102L22.661 20.462H15.714Z" fill="#181818"/>
</svg>
