<svg width="24" height="25" viewBox="0 0 24 25" fill="none" xmlns="http://www.w3.org/2000/svg">
<path d="M10.7999 14.9C10.4816 14.9 10.1764 14.7736 9.95137 14.5485C9.72633 14.3235 9.5999 14.0182 9.5999 13.7V6.59958C7.82382 6.90527 6.22688 7.86571 5.12432 9.29129C4.02176 10.7169 3.49371 12.504 3.64441 14.2999C3.79511 16.0958 4.6136 17.7699 5.93832 18.9918C7.26304 20.2137 8.99771 20.8946 10.7999 20.9C12.5015 20.8998 14.148 20.2971 15.4477 19.1989C16.7474 18.1006 17.6162 16.5777 17.9003 14.9H10.7999ZM9.6035 5.38398C10.2599 5.29038 10.7999 5.83758 10.7999 6.49998V13.7H17.9999C18.6623 13.7 19.2095 14.24 19.1159 14.8964C18.8084 16.9948 17.7188 18.8994 16.0655 20.2279C14.4123 21.5564 12.3179 22.2106 10.2024 22.0592C8.08698 21.9078 6.10704 20.962 4.65988 19.4116C3.21271 17.8612 2.40539 15.8208 2.3999 13.7C2.40001 11.6793 3.12831 9.72634 4.45134 8.19901C5.77437 6.67167 7.6035 5.67228 9.6035 5.38398ZM13.1999 11.3V4.09998C15.1095 4.09998 16.9408 4.85855 18.2911 6.20881C19.6413 7.55908 20.3999 9.39042 20.3999 11.3H13.1999ZM20.4743 12.5C21.0719 12.5 21.5867 12.0608 21.5987 11.4632L21.5999 11.3C21.6 10.1831 21.3773 9.07744 20.9449 8.04766C20.5125 7.01788 19.8791 6.08467 19.0818 5.30261C18.2844 4.52056 17.3391 3.90537 16.3011 3.49303C15.2631 3.08069 14.1534 2.87948 13.0367 2.90118C12.4391 2.91318 11.9999 3.42918 11.9999 4.02558V11.3C11.9999 11.6182 12.1263 11.9235 12.3514 12.1485C12.5764 12.3736 12.8816 12.5 13.1999 12.5H20.4743Z" fill="#181818"/>
</svg>
