<svg width="17" height="16" viewBox="0 0 17 16" fill="none" xmlns="http://www.w3.org/2000/svg">
<path d="M16.0003 10.62C14.5855 11.1886 13.0348 11.3289 11.541 11.0235C10.0471 10.7182 8.67596 9.9806 7.5978 8.90245C6.51965 7.8243 5.78207 6.4531 5.47671 4.95926C5.17135 3.46541 5.31168 1.91476 5.88025 0.5C4.20504 1.17505 2.81679 2.41177 1.95347 3.99818C1.09014 5.58459 0.805499 7.4219 1.14833 9.19517C1.49116 10.9684 2.44012 12.5673 3.83255 13.7176C5.22497 14.8679 6.97414 15.498 8.78025 15.5C10.3333 15.4999 11.8507 15.0351 13.1374 14.1654C14.4241 13.2957 15.4211 12.061 16.0003 10.62Z" stroke="#181818" stroke-linejoin="round"/>
</svg>
