<svg width="24" height="25" viewBox="0 0 24 25" fill="none" xmlns="http://www.w3.org/2000/svg">
<path fill-rule="evenodd" clip-rule="evenodd" d="M12.0002 23C13.6102 23 16.3642 20.9 16.3642 12.5C16.3642 4.1 13.6102 2 12.0002 2C10.3902 2 7.63672 4.2415 7.63672 12.5C7.63672 20.7585 10.3902 23 12.0002 23Z" stroke="#181818" stroke-linecap="round" stroke-linejoin="round"/>
<path fill-rule="evenodd" clip-rule="evenodd" d="M2.55204 18C3.35704 19.406 6.62354 20.7105 14.1815 16.3105C21.7395 11.9105 22.2525 8.406 21.447 7.0005C20.642 5.594 17.2485 4.3635 9.81804 8.6895C2.38704 13.0155 1.74704 16.594 2.55204 18Z" stroke="#181818" stroke-linecap="round" stroke-linejoin="round"/>
<path fill-rule="evenodd" clip-rule="evenodd" d="M2.55225 7.00001C1.74725 8.40601 2.25975 11.9105 9.81825 16.3105C17.3763 20.7105 20.6423 19.406 21.4473 18.0005C22.2523 16.594 21.6123 13.0155 14.1818 8.68951C6.75075 4.36351 3.35725 5.59401 2.55225 7.00001Z" stroke="#181818" stroke-linecap="round" stroke-linejoin="round"/>
</svg>
